<mxfile host="app.diagrams.net" agent="Mozilla/5.0 (Windows NT 10.0; Win64; x64) AppleWebKit/537.36 (KHTML, like Gecko) Chrome/135.0.0.0 Safari/537.36 Edg/135.0.0.0" version="26.2.14">
  <diagram name="Page-1" id="AiXGCM6Vw7krmTAk0DW2">
    <mxGraphModel dx="347" dy="531" grid="1" gridSize="10" guides="1" tooltips="1" connect="1" arrows="1" fold="1" page="1" pageScale="1" pageWidth="850" pageHeight="1100" math="0" shadow="0">
      <root>
        <mxCell id="0" />
        <mxCell id="1" parent="0" />
        <mxCell id="czLvhQE6MBdfPCsbufJK-1" value="&lt;b&gt;Rough Concept -&amp;nbsp;Amber &amp;amp; Oud – Luxury Perfume Store&lt;/b&gt;" style="text;html=1;align=center;verticalAlign=middle;whiteSpace=wrap;rounded=0;" vertex="1" parent="1">
          <mxGeometry x="30" y="10" width="280" height="30" as="geometry" />
        </mxCell>
        <mxCell id="czLvhQE6MBdfPCsbufJK-13" style="edgeStyle=orthogonalEdgeStyle;rounded=0;orthogonalLoop=1;jettySize=auto;html=1;entryX=0.25;entryY=0;entryDx=0;entryDy=0;" edge="1" parent="1" source="czLvhQE6MBdfPCsbufJK-2" target="czLvhQE6MBdfPCsbufJK-8">
          <mxGeometry relative="1" as="geometry" />
        </mxCell>
        <mxCell id="czLvhQE6MBdfPCsbufJK-2" value="Client" style="rounded=0;whiteSpace=wrap;html=1;" vertex="1" parent="1">
          <mxGeometry x="180" y="50" width="80" height="30" as="geometry" />
        </mxCell>
        <mxCell id="czLvhQE6MBdfPCsbufJK-3" value="Auth Module" style="rounded=0;whiteSpace=wrap;html=1;" vertex="1" parent="1">
          <mxGeometry x="80" y="250" width="90" height="20" as="geometry" />
        </mxCell>
        <mxCell id="czLvhQE6MBdfPCsbufJK-22" style="edgeStyle=orthogonalEdgeStyle;rounded=0;orthogonalLoop=1;jettySize=auto;html=1;" edge="1" parent="1" source="czLvhQE6MBdfPCsbufJK-5" target="czLvhQE6MBdfPCsbufJK-20">
          <mxGeometry relative="1" as="geometry" />
        </mxCell>
        <mxCell id="czLvhQE6MBdfPCsbufJK-5" value="Product Module" style="rounded=0;whiteSpace=wrap;html=1;" vertex="1" parent="1">
          <mxGeometry x="290" y="260" width="90" height="20" as="geometry" />
        </mxCell>
        <mxCell id="czLvhQE6MBdfPCsbufJK-24" style="edgeStyle=orthogonalEdgeStyle;rounded=0;orthogonalLoop=1;jettySize=auto;html=1;" edge="1" parent="1" source="czLvhQE6MBdfPCsbufJK-6" target="czLvhQE6MBdfPCsbufJK-23">
          <mxGeometry relative="1" as="geometry" />
        </mxCell>
        <mxCell id="czLvhQE6MBdfPCsbufJK-6" value="Cart/Order Module&amp;nbsp;" style="rounded=0;whiteSpace=wrap;html=1;" vertex="1" parent="1">
          <mxGeometry x="470" y="260" width="100" height="30" as="geometry" />
        </mxCell>
        <mxCell id="czLvhQE6MBdfPCsbufJK-7" value="Admin Panel" style="rounded=0;whiteSpace=wrap;html=1;" vertex="1" parent="1">
          <mxGeometry x="700" y="250" width="90" height="30" as="geometry" />
        </mxCell>
        <mxCell id="czLvhQE6MBdfPCsbufJK-11" style="edgeStyle=orthogonalEdgeStyle;rounded=0;orthogonalLoop=1;jettySize=auto;html=1;entryX=0.25;entryY=0;entryDx=0;entryDy=0;" edge="1" parent="1" source="czLvhQE6MBdfPCsbufJK-8" target="czLvhQE6MBdfPCsbufJK-6">
          <mxGeometry relative="1" as="geometry" />
        </mxCell>
        <mxCell id="czLvhQE6MBdfPCsbufJK-19" style="edgeStyle=orthogonalEdgeStyle;rounded=0;orthogonalLoop=1;jettySize=auto;html=1;" edge="1" parent="1" source="czLvhQE6MBdfPCsbufJK-8" target="czLvhQE6MBdfPCsbufJK-7">
          <mxGeometry relative="1" as="geometry" />
        </mxCell>
        <mxCell id="czLvhQE6MBdfPCsbufJK-8" value="Spring Backend" style="rounded=0;whiteSpace=wrap;html=1;" vertex="1" parent="1">
          <mxGeometry x="190" y="150" width="110" height="40" as="geometry" />
        </mxCell>
        <mxCell id="czLvhQE6MBdfPCsbufJK-9" style="edgeStyle=orthogonalEdgeStyle;rounded=0;orthogonalLoop=1;jettySize=auto;html=1;entryX=0.4;entryY=-0.1;entryDx=0;entryDy=0;entryPerimeter=0;" edge="1" parent="1" source="czLvhQE6MBdfPCsbufJK-8" target="czLvhQE6MBdfPCsbufJK-3">
          <mxGeometry relative="1" as="geometry" />
        </mxCell>
        <mxCell id="czLvhQE6MBdfPCsbufJK-10" style="edgeStyle=orthogonalEdgeStyle;rounded=0;orthogonalLoop=1;jettySize=auto;html=1;entryX=0.167;entryY=0;entryDx=0;entryDy=0;entryPerimeter=0;" edge="1" parent="1" source="czLvhQE6MBdfPCsbufJK-8" target="czLvhQE6MBdfPCsbufJK-5">
          <mxGeometry relative="1" as="geometry" />
        </mxCell>
        <mxCell id="czLvhQE6MBdfPCsbufJK-16" value="&lt;code style=&quot;background-color: transparent; color: light-dark(rgb(0, 0, 0), rgb(255, 255, 255));&quot; data-end=&quot;413&quot; data-start=&quot;388&quot;&gt;POST /api/auth/register&lt;/code&gt;&lt;span style=&quot;background-color: transparent; color: light-dark(rgb(0, 0, 0), rgb(255, 255, 255));&quot;&gt; – register users&lt;/span&gt;&lt;br&gt;&lt;div&gt;&lt;div style=&quot;text-align: left;&quot;&gt;&lt;code style=&quot;background-color: transparent; color: light-dark(rgb(0, 0, 0), rgb(255, 255, 255));&quot; data-end=&quot;455&quot; data-start=&quot;433&quot;&gt;POST /api/auth/login&lt;/code&gt;&lt;span style=&quot;background-color: transparent; color: light-dark(rgb(0, 0, 0), rgb(255, 255, 255));&quot;&gt; – get JWT token&lt;/span&gt;&lt;/div&gt;&lt;div style=&quot;text-align: left;&quot;&gt;&lt;span style=&quot;background-color: transparent; color: light-dark(rgb(0, 0, 0), rgb(255, 255, 255));&quot;&gt;Role-based access for &lt;/span&gt;&lt;code style=&quot;background-color: transparent; color: light-dark(rgb(0, 0, 0), rgb(255, 255, 255));&quot; data-end=&quot;503&quot; data-start=&quot;496&quot;&gt;ADMIN&lt;/code&gt;&lt;span style=&quot;background-color: transparent; color: light-dark(rgb(0, 0, 0), rgb(255, 255, 255));&quot;&gt;, &lt;/span&gt;&lt;code style=&quot;background-color: transparent; color: light-dark(rgb(0, 0, 0), rgb(255, 255, 255));&quot; data-end=&quot;515&quot; data-start=&quot;505&quot;&gt;CUSTOMER&lt;/code&gt;&lt;/div&gt;&lt;/div&gt;" style="rounded=0;whiteSpace=wrap;html=1;" vertex="1" parent="1">
          <mxGeometry x="40" y="370" width="210" height="80" as="geometry" />
        </mxCell>
        <mxCell id="czLvhQE6MBdfPCsbufJK-17" value="Authentication &amp;amp; Athorization" style="edgeStyle=orthogonalEdgeStyle;rounded=0;orthogonalLoop=1;jettySize=auto;html=1;entryX=0.405;entryY=0.038;entryDx=0;entryDy=0;entryPerimeter=0;" edge="1" parent="1" source="czLvhQE6MBdfPCsbufJK-3" target="czLvhQE6MBdfPCsbufJK-16">
          <mxGeometry relative="1" as="geometry" />
        </mxCell>
        <mxCell id="czLvhQE6MBdfPCsbufJK-20" value="&lt;table&gt;&lt;tbody&gt;&lt;tr data-end=&quot;759&quot; data-start=&quot;692&quot;&gt;&lt;td data-col-size=&quot;sm&quot; data-end=&quot;709&quot; data-start=&quot;692&quot;&gt;List Products&lt;/td&gt;&lt;td data-col-size=&quot;sm&quot; data-end=&quot;744&quot; data-start=&quot;709&quot;&gt;&lt;code data-end=&quot;730&quot; data-start=&quot;711&quot;&gt;GET /api/products&lt;/code&gt;&lt;/td&gt;&lt;td data-col-size=&quot;sm&quot; data-end=&quot;759&quot; data-start=&quot;744&quot;&gt;Public&lt;/td&gt;&lt;/tr&gt;&lt;/tbody&gt;&lt;/table&gt;&lt;table&gt;&lt;tbody&gt;&lt;tr data-end=&quot;827&quot; data-start=&quot;760&quot;&gt;&lt;td data-col-size=&quot;sm&quot; data-end=&quot;777&quot; data-start=&quot;760&quot;&gt;View Product&lt;/td&gt;&lt;td data-col-size=&quot;sm&quot; data-end=&quot;812&quot; data-start=&quot;777&quot;&gt;&lt;code data-end=&quot;803&quot; data-start=&quot;779&quot;&gt;GET /api/products/{id}&lt;/code&gt;&lt;/td&gt;&lt;td data-col-size=&quot;sm&quot; data-end=&quot;827&quot; data-start=&quot;812&quot;&gt;Public&lt;/td&gt;&lt;/tr&gt;&lt;/tbody&gt;&lt;/table&gt;&lt;table&gt;&lt;tbody&gt;&lt;tr data-end=&quot;895&quot; data-start=&quot;828&quot;&gt;&lt;td data-col-size=&quot;sm&quot; data-end=&quot;845&quot; data-start=&quot;828&quot;&gt;Add Product&lt;/td&gt;&lt;td data-col-size=&quot;sm&quot; data-end=&quot;880&quot; data-start=&quot;845&quot;&gt;&lt;code data-end=&quot;867&quot; data-start=&quot;847&quot;&gt;POST /api/products&lt;/code&gt;&lt;/td&gt;&lt;td data-col-size=&quot;sm&quot; data-end=&quot;895&quot; data-start=&quot;880&quot;&gt;Admin only&lt;/td&gt;&lt;/tr&gt;&lt;/tbody&gt;&lt;/table&gt;&lt;table&gt;&lt;tbody&gt;&lt;tr data-end=&quot;963&quot; data-start=&quot;896&quot;&gt;&lt;td data-col-size=&quot;sm&quot; data-end=&quot;913&quot; data-start=&quot;896&quot;&gt;Edit Product&lt;/td&gt;&lt;td data-col-size=&quot;sm&quot; data-end=&quot;948&quot; data-start=&quot;913&quot;&gt;&lt;code data-end=&quot;939&quot; data-start=&quot;915&quot;&gt;PUT /api/products/{id}&lt;/code&gt;&lt;/td&gt;&lt;td data-end=&quot;963&quot; data-start=&quot;948&quot; data-col-size=&quot;sm&quot;&gt;Admin only&lt;/td&gt;&lt;/tr&gt;&lt;/tbody&gt;&lt;/table&gt;&lt;table&gt;&lt;tbody&gt;&lt;tr data-end=&quot;1031&quot; data-start=&quot;964&quot;&gt;&lt;td data-col-size=&quot;sm&quot; data-end=&quot;981&quot; data-start=&quot;964&quot;&gt;Delete Product&lt;/td&gt;&lt;td data-col-size=&quot;sm&quot; data-end=&quot;1016&quot; data-start=&quot;981&quot;&gt;&lt;code data-end=&quot;1010&quot; data-start=&quot;983&quot;&gt;DELETE /api/products/{id}&lt;/code&gt;&lt;/td&gt;&lt;td data-col-size=&quot;sm&quot; data-end=&quot;1031&quot; data-start=&quot;1016&quot;&gt;Admin only&lt;/td&gt;&lt;/tr&gt;&lt;/tbody&gt;&lt;/table&gt;" style="rounded=0;whiteSpace=wrap;html=1;" vertex="1" parent="1">
          <mxGeometry x="80" y="470" width="360" height="120" as="geometry" />
        </mxCell>
        <mxCell id="czLvhQE6MBdfPCsbufJK-23" value="&lt;table style=&quot;&quot;&gt;&lt;tbody&gt;&lt;tr data-end=&quot;1419&quot; data-start=&quot;1353&quot;&gt;&lt;td data-col-size=&quot;sm&quot; data-end=&quot;1372&quot; data-start=&quot;1353&quot;&gt;Add to Cat&lt;/td&gt;&lt;td data-end=&quot;1404&quot; data-start=&quot;1372&quot; data-col-size=&quot;sm&quot;&gt;&lt;code data-end=&quot;1394&quot; data-start=&quot;1374&quot;&gt;POST /api/cart/add&lt;/code&gt;&lt;/td&gt;&lt;td data-end=&quot;1419&quot; data-start=&quot;1404&quot; data-col-size=&quot;sm&quot;&gt;Customer&lt;/td&gt;&lt;/tr&gt;&lt;/tbody&gt;&lt;/table&gt;&lt;table style=&quot;&quot;&gt;&lt;tbody&gt;&lt;tr data-end=&quot;1486&quot; data-start=&quot;1420&quot;&gt;&lt;td data-col-size=&quot;sm&quot; data-end=&quot;1439&quot; data-start=&quot;1420&quot;&gt;View Cart&lt;/td&gt;&lt;td data-col-size=&quot;sm&quot; data-end=&quot;1471&quot; data-start=&quot;1439&quot;&gt;&lt;code data-end=&quot;1456&quot; data-start=&quot;1441&quot;&gt;GET /api/cart&lt;/code&gt;&lt;/td&gt;&lt;td data-col-size=&quot;sm&quot; data-end=&quot;1486&quot; data-start=&quot;1471&quot;&gt;Customer&lt;/td&gt;&lt;/tr&gt;&lt;/tbody&gt;&lt;/table&gt;&lt;table style=&quot;&quot;&gt;&lt;tbody&gt;&lt;tr data-end=&quot;1553&quot; data-start=&quot;1487&quot;&gt;&lt;td data-col-size=&quot;sm&quot; data-end=&quot;1506&quot; data-start=&quot;1487&quot;&gt;Remove from Cart&amp;nbsp;&lt;table&gt;&lt;tbody&gt;&lt;tr data-end=&quot;1553&quot; data-start=&quot;1487&quot;&gt;&lt;td data-col-size=&quot;sm&quot; data-end=&quot;1538&quot; data-start=&quot;1506&quot;&gt;&lt;code data-end=&quot;1538&quot; data-start=&quot;1508&quot;&gt;DELETE/api/cart/remove/{id}&lt;/code&gt;&lt;/td&gt;&lt;td data-col-size=&quot;sm&quot; data-end=&quot;1553&quot; data-start=&quot;1538&quot;&gt;Customer&lt;/td&gt;&lt;/tr&gt;&lt;/tbody&gt;&lt;/table&gt;&lt;/td&gt;&lt;td data-col-size=&quot;sm&quot; data-end=&quot;1538&quot; data-start=&quot;1506&quot;&gt;&lt;br&gt;&lt;/td&gt;&lt;td data-col-size=&quot;sm&quot; data-end=&quot;1553&quot; data-start=&quot;1538&quot;&gt;&lt;/td&gt;&lt;/tr&gt;&lt;/tbody&gt;&lt;/table&gt;" style="rounded=0;whiteSpace=wrap;html=1;align=left;" vertex="1" parent="1">
          <mxGeometry x="330" y="610" width="270" height="120" as="geometry" />
        </mxCell>
        <mxCell id="czLvhQE6MBdfPCsbufJK-25" value="&lt;table&gt;&lt;tbody&gt;&lt;tr data-end=&quot;1767&quot; data-start=&quot;1708&quot;&gt;&lt;td data-col-size=&quot;sm&quot; data-end=&quot;1725&quot; data-start=&quot;1708&quot;&gt;Place Order&lt;/td&gt;&lt;td data-col-size=&quot;sm&quot; data-end=&quot;1753&quot; data-start=&quot;1725&quot;&gt;&lt;code data-end=&quot;1745&quot; data-start=&quot;1727&quot;&gt;POST /api/orders&lt;/code&gt;&lt;/td&gt;&lt;td data-end=&quot;1767&quot; data-start=&quot;1753&quot; data-col-size=&quot;sm&quot;&gt;Customer&lt;/td&gt;&lt;/tr&gt;&lt;/tbody&gt;&lt;/table&gt;&lt;table&gt;&lt;tbody&gt;&lt;tr data-end=&quot;1827&quot; data-start=&quot;1768&quot;&gt;&lt;td data-col-size=&quot;sm&quot; data-end=&quot;1785&quot; data-start=&quot;1768&quot;&gt;View My Orders&lt;/td&gt;&lt;td data-end=&quot;1813&quot; data-start=&quot;1785&quot; data-col-size=&quot;sm&quot;&gt;&lt;code data-end=&quot;1807&quot; data-start=&quot;1787&quot;&gt;GET /api/orders/my&lt;/code&gt;&lt;/td&gt;&lt;td data-end=&quot;1827&quot; data-start=&quot;1813&quot; data-col-size=&quot;sm&quot;&gt;Customer&lt;/td&gt;&lt;/tr&gt;&lt;/tbody&gt;&lt;/table&gt;&lt;table&gt;&lt;tbody&gt;&lt;tr data-end=&quot;1887&quot; data-start=&quot;1828&quot;&gt;&lt;td data-col-size=&quot;sm&quot; data-end=&quot;1845&quot; data-start=&quot;1828&quot;&gt;All Orders&lt;/td&gt;&lt;td data-end=&quot;1873&quot; data-start=&quot;1845&quot; data-col-size=&quot;sm&quot;&gt;&lt;code data-end=&quot;1864&quot; data-start=&quot;1847&quot;&gt;GET /api/orders&lt;/code&gt;&lt;/td&gt;&lt;td data-end=&quot;1887&quot; data-start=&quot;1873&quot; data-col-size=&quot;sm&quot;&gt;Admin&lt;/td&gt;&lt;/tr&gt;&lt;/tbody&gt;&lt;/table&gt;&lt;table&gt;&lt;tbody&gt;&lt;tr data-end=&quot;1947&quot; data-start=&quot;1888&quot;&gt;&lt;td data-col-size=&quot;sm&quot; data-end=&quot;1905&quot; data-start=&quot;1888&quot;&gt;Update Status&lt;/td&gt;&lt;td data-col-size=&quot;sm&quot; data-end=&quot;1933&quot; data-start=&quot;1905&quot;&gt;&lt;code data-end=&quot;1929&quot; data-start=&quot;1907&quot;&gt;PUT /api/orders/{id}&lt;/code&gt;&lt;/td&gt;&lt;td data-col-size=&quot;sm&quot; data-end=&quot;1947&quot; data-start=&quot;1933&quot;&gt;Admin&lt;/td&gt;&lt;/tr&gt;&lt;/tbody&gt;&lt;/table&gt;" style="rounded=0;whiteSpace=wrap;html=1;" vertex="1" parent="1">
          <mxGeometry x="380" y="770" width="280" height="80" as="geometry" />
        </mxCell>
      </root>
    </mxGraphModel>
  </diagram>
</mxfile>
